<mxfile host="www.draw.io" modified="2019-12-23T09:10:56.369Z" agent="Mozilla/5.0 (Windows NT 10.0; Win64; x64) AppleWebKit/537.36 (KHTML, like Gecko) Chrome/79.0.3945.88 Safari/537.36" etag="w4h4Fslz4ccf3It2w4fc" version="12.4.3" type="github" pages="1">
  <diagram id="xR1NO-RbYIgYDlHg0HIo" name="Page-1">
    <mxGraphModel dx="964" dy="548" grid="1" gridSize="10" guides="1" tooltips="1" connect="1" arrows="1" fold="1" page="1" pageScale="1" pageWidth="850" pageHeight="1100" math="0" shadow="0">
      <root>
        <mxCell id="0"/>
        <mxCell id="1" parent="0"/>
        <mxCell id="CoEcBkly0u2FdhkzZ3iZ-1" value="&amp;lt;&amp;lt;SYSTEM&amp;gt;&amp;gt;" style="shape=umlLifeline;perimeter=lifelinePerimeter;whiteSpace=wrap;html=1;container=1;collapsible=0;recursiveResize=0;outlineConnect=0;" parent="1" vertex="1">
          <mxGeometry x="270" y="170" width="100" height="520" as="geometry"/>
        </mxCell>
        <mxCell id="CoEcBkly0u2FdhkzZ3iZ-14" value="" style="html=1;points=[];perimeter=orthogonalPerimeter;" parent="CoEcBkly0u2FdhkzZ3iZ-1" vertex="1">
          <mxGeometry x="43" y="60" width="10" height="120" as="geometry"/>
        </mxCell>
        <mxCell id="CoEcBkly0u2FdhkzZ3iZ-26" value="" style="html=1;points=[];perimeter=orthogonalPerimeter;" parent="CoEcBkly0u2FdhkzZ3iZ-1" vertex="1">
          <mxGeometry x="43" y="270" width="10" height="140" as="geometry"/>
        </mxCell>
        <mxCell id="CoEcBkly0u2FdhkzZ3iZ-2" value="Athlete" style="shape=umlLifeline;participant=umlActor;perimeter=lifelinePerimeter;whiteSpace=wrap;html=1;container=1;collapsible=0;recursiveResize=0;verticalAlign=top;spacingTop=36;labelBackgroundColor=#ffffff;outlineConnect=0;" parent="1" vertex="1">
          <mxGeometry x="80" y="170" width="20" height="520" as="geometry"/>
        </mxCell>
        <mxCell id="CoEcBkly0u2FdhkzZ3iZ-4" value="" style="html=1;points=[];perimeter=orthogonalPerimeter;" parent="CoEcBkly0u2FdhkzZ3iZ-2" vertex="1">
          <mxGeometry x="5" y="60" width="10" height="130" as="geometry"/>
        </mxCell>
        <mxCell id="CoEcBkly0u2FdhkzZ3iZ-23" value="" style="html=1;points=[];perimeter=orthogonalPerimeter;" parent="CoEcBkly0u2FdhkzZ3iZ-2" vertex="1">
          <mxGeometry x="5" y="270" width="10" height="200" as="geometry"/>
        </mxCell>
        <mxCell id="CoEcBkly0u2FdhkzZ3iZ-3" value="workout programs" style="shape=umlLifeline;perimeter=lifelinePerimeter;whiteSpace=wrap;html=1;container=1;collapsible=0;recursiveResize=0;outlineConnect=0;" parent="1" vertex="1">
          <mxGeometry x="670" y="160" width="100" height="530" as="geometry"/>
        </mxCell>
        <mxCell id="CoEcBkly0u2FdhkzZ3iZ-29" value="" style="html=1;points=[];perimeter=orthogonalPerimeter;" parent="CoEcBkly0u2FdhkzZ3iZ-3" vertex="1">
          <mxGeometry x="45" y="360" width="10" height="40" as="geometry"/>
        </mxCell>
        <mxCell id="CoEcBkly0u2FdhkzZ3iZ-11" value="getOwnCoaches()" style="endArrow=block;endFill=1;html=1;edgeStyle=orthogonalEdgeStyle;align=left;verticalAlign=top;" parent="1" edge="1">
          <mxGeometry x="-0.3617" y="20" relative="1" as="geometry">
            <mxPoint x="325" y="270" as="sourcePoint"/>
            <mxPoint x="560" y="270" as="targetPoint"/>
            <mxPoint as="offset"/>
          </mxGeometry>
        </mxCell>
        <mxCell id="CoEcBkly0u2FdhkzZ3iZ-13" value="Athlete" style="shape=umlLifeline;perimeter=lifelinePerimeter;whiteSpace=wrap;html=1;container=1;collapsible=0;recursiveResize=0;outlineConnect=0;" parent="1" vertex="1">
          <mxGeometry x="520" y="160" width="100" height="530" as="geometry"/>
        </mxCell>
        <mxCell id="CoEcBkly0u2FdhkzZ3iZ-17" value="" style="html=1;points=[];perimeter=orthogonalPerimeter;" parent="CoEcBkly0u2FdhkzZ3iZ-13" vertex="1">
          <mxGeometry x="45" y="110" width="10" height="40" as="geometry"/>
        </mxCell>
        <mxCell id="CoEcBkly0u2FdhkzZ3iZ-18" value="" style="endArrow=blockThin;dashed=1;endFill=1;endSize=12;html=1;" parent="1" edge="1">
          <mxGeometry width="160" relative="1" as="geometry">
            <mxPoint x="561.5" y="307" as="sourcePoint"/>
            <mxPoint x="320" y="307" as="targetPoint"/>
          </mxGeometry>
        </mxCell>
        <mxCell id="CoEcBkly0u2FdhkzZ3iZ-20" value="return list of athletes coaches" style="text;strokeColor=none;fillColor=none;align=left;verticalAlign=top;spacingLeft=4;spacingRight=4;overflow=hidden;rotatable=0;points=[[0,0.5],[1,0.5]];portConstraint=eastwest;" parent="1" vertex="1">
          <mxGeometry x="360" y="307" width="160" height="26" as="geometry"/>
        </mxCell>
        <mxCell id="CoEcBkly0u2FdhkzZ3iZ-21" value="" style="endArrow=block;dashed=1;endFill=1;endSize=12;html=1;" parent="1" edge="1">
          <mxGeometry width="160" relative="1" as="geometry">
            <mxPoint x="310" y="350" as="sourcePoint"/>
            <mxPoint x="100" y="350" as="targetPoint"/>
          </mxGeometry>
        </mxCell>
        <mxCell id="CoEcBkly0u2FdhkzZ3iZ-22" value="return list of coaches" style="text;strokeColor=none;fillColor=none;align=left;verticalAlign=top;spacingLeft=4;spacingRight=4;overflow=hidden;rotatable=0;points=[[0,0.5],[1,0.5]];portConstraint=eastwest;" parent="1" vertex="1">
          <mxGeometry x="140" y="330" width="130" height="26" as="geometry"/>
        </mxCell>
        <mxCell id="CoEcBkly0u2FdhkzZ3iZ-27" value="request for a program" style="endArrow=block;endFill=1;html=1;edgeStyle=orthogonalEdgeStyle;align=left;verticalAlign=top;" parent="1" edge="1">
          <mxGeometry x="-1" relative="1" as="geometry">
            <mxPoint x="100" y="440" as="sourcePoint"/>
            <mxPoint x="310" y="440" as="targetPoint"/>
          </mxGeometry>
        </mxCell>
        <mxCell id="CoEcBkly0u2FdhkzZ3iZ-43" value="" style="endArrow=classicThin;dashed=1;endFill=1;endSize=12;html=1;" parent="1" edge="1">
          <mxGeometry width="160" relative="1" as="geometry">
            <mxPoint x="710" y="560" as="sourcePoint"/>
            <mxPoint x="320" y="560" as="targetPoint"/>
          </mxGeometry>
        </mxCell>
        <mxCell id="CoEcBkly0u2FdhkzZ3iZ-44" value="" style="endArrow=blockThin;dashed=1;endFill=1;endSize=12;html=1;" parent="1" edge="1">
          <mxGeometry width="160" relative="1" as="geometry">
            <mxPoint x="307.5" y="576" as="sourcePoint"/>
            <mxPoint x="100" y="576" as="targetPoint"/>
          </mxGeometry>
        </mxCell>
        <mxCell id="CoEcBkly0u2FdhkzZ3iZ-30" value="requestForProgram()" style="endArrow=block;endFill=1;html=1;edgeStyle=orthogonalEdgeStyle;align=left;verticalAlign=top;" parent="1" edge="1">
          <mxGeometry x="-0.3333" y="20" relative="1" as="geometry">
            <mxPoint x="330" y="520" as="sourcePoint"/>
            <mxPoint x="720" y="520" as="targetPoint"/>
            <mxPoint as="offset"/>
          </mxGeometry>
        </mxCell>
        <mxCell id="CoEcBkly0u2FdhkzZ3iZ-45" value="choose coach" style="endArrow=block;endFill=1;html=1;edgeStyle=orthogonalEdgeStyle;align=left;verticalAlign=top;" parent="1" edge="1">
          <mxGeometry x="-1" relative="1" as="geometry">
            <mxPoint x="100" y="470" as="sourcePoint"/>
            <mxPoint x="310" y="470" as="targetPoint"/>
          </mxGeometry>
        </mxCell>
        <mxCell id="CoEcBkly0u2FdhkzZ3iZ-47" value="return status" style="text;strokeColor=none;fillColor=none;align=left;verticalAlign=top;spacingLeft=4;spacingRight=4;overflow=hidden;rotatable=0;points=[[0,0.5],[1,0.5]];portConstraint=eastwest;" parent="1" vertex="1">
          <mxGeometry x="470" y="537" width="100" height="26" as="geometry"/>
        </mxCell>
        <mxCell id="CoEcBkly0u2FdhkzZ3iZ-48" value="return status" style="text;strokeColor=none;fillColor=none;align=left;verticalAlign=top;spacingLeft=4;spacingRight=4;overflow=hidden;rotatable=0;points=[[0,0.5],[1,0.5]];portConstraint=eastwest;" parent="1" vertex="1">
          <mxGeometry x="155" y="550" width="100" height="26" as="geometry"/>
        </mxCell>
        <mxCell id="CoEcBkly0u2FdhkzZ3iZ-49" value="enter the physical information" style="endArrow=block;endFill=1;html=1;edgeStyle=orthogonalEdgeStyle;align=left;verticalAlign=top;" parent="1" edge="1">
          <mxGeometry x="-1" relative="1" as="geometry">
            <mxPoint x="100" y="500" as="sourcePoint"/>
            <mxPoint x="310" y="500" as="targetPoint"/>
          </mxGeometry>
        </mxCell>
        <mxCell id="Eatmnu9RjHbPbuW2qq_U-1" value="" style="endArrow=classic;html=1;fontSize=9;" edge="1" parent="1">
          <mxGeometry width="50" height="50" relative="1" as="geometry">
            <mxPoint x="100" y="250" as="sourcePoint"/>
            <mxPoint x="310" y="250" as="targetPoint"/>
          </mxGeometry>
        </mxCell>
        <mxCell id="Eatmnu9RjHbPbuW2qq_U-2" value="&lt;font style=&quot;font-size: 11px&quot;&gt;get list of coaches&lt;/font&gt;" style="text;html=1;fontSize=9;" vertex="1" parent="1">
          <mxGeometry x="140" y="220" width="100" height="30" as="geometry"/>
        </mxCell>
      </root>
    </mxGraphModel>
  </diagram>
</mxfile>
